<?xml version="1.0" standalone="no"?>
<!DOCTYPE svg PUBLIC "-//W3C//DTD SVG 20010904//EN"
 "http://www.w3.org/TR/2001/REC-SVG-20010904/DTD/svg10.dtd">
<svg version="1.0" xmlns="http://www.w3.org/2000/svg"
 width="900.000000pt" height="900.000000pt" viewBox="0 0 900.000000 900.000000"
 preserveAspectRatio="xMidYMid meet">
<metadata>
Created by potrace 1.16, written by Peter Selinger 2001-2019
</metadata>
<g transform="translate(0.000000,900.000000) scale(0.100000,-0.100000)"
fill="#ee151f" stroke="none">
<path d="M4200 8989 c-450 -30 -943 -143 -1375 -314 -829 -329 -1564 -927
-2070 -1685 -663 -993 -904 -2235 -658 -3405 225 -1078 831 -2030 1708 -2684
641 -479 1338 -759 2155 -865 551 -72 1147 -29 1715 123 1002 269 1877 879
2489 1734 412 577 682 1249 786 1957 86 593 57 1163 -91 1755 -221 883 -707
1673 -1408 2289 -179 158 -427 337 -661 476 -768 458 -1691 679 -2590 619z
m-1325 -3776 c-18 -60 -63 -205 -100 -323 -37 -118 -73 -234 -80 -257 l-13
-43 79 0 c56 0 79 -4 79 -12 0 -7 -11 -47 -24 -88 -13 -41 -41 -130 -62 -197
l-37 -123 -684 0 c-647 0 -684 1 -679 18 14 51 99 342 108 369 l9 33 381 2
381 3 33 110 c18 61 39 129 48 153 l15 42 -288 0 c-158 0 -290 3 -294 6 -3 3
-1 18 4 32 6 14 30 96 55 182 24 85 49 165 54 178 l10 22 518 0 519 0 -32
-107z m825 100 c0 -12 -100 -360 -176 -611 -19 -62 -34 -115 -34 -118 0 -7
-459 -4 -463 4 -3 4 17 76 43 160 l47 152 -108 0 c-81 0 -109 3 -109 13 0 6
23 86 50 177 28 91 50 168 50 172 0 4 4 18 10 32 l10 26 340 0 c187 0 340 -3
340 -7z m1125 -5 c-3 -7 -29 -98 -59 -203 -30 -104 -98 -341 -151 -525 -54
-184 -102 -352 -107 -372 l-10 -38 -219 0 c-121 0 -219 3 -219 6 0 4 38 133
84 288 103 344 126 421 126 430 0 3 -133 6 -295 6 -266 0 -295 2 -295 16 0 9
21 87 46 173 26 86 51 173 56 194 l10 37 519 0 c410 0 517 -3 514 -12z m670
-20 c24 -143 58 -362 80 -513 15 -99 28 -181 29 -182 1 -1 27 15 58 35 l57 37
26 106 c14 58 25 111 25 117 0 8 -20 12 -56 12 l-56 0 7 37 c4 21 23 90 42
153 20 63 43 141 51 173 l16 57 284 0 c224 0 283 -3 279 -13 -2 -6 -35 -113
-71 -237 -37 -124 -93 -309 -123 -412 l-56 -186 -183 -151 -184 -151 -561 0
c-529 0 -560 1 -555 18 6 20 80 262 104 342 l17 55 218 3 c119 1 217 4 217 5
0 1 -9 65 -20 142 -11 77 -20 146 -20 153 0 9 -27 12 -100 12 -55 0 -100 3
-100 6 0 8 68 250 91 324 11 36 22 71 24 78 3 9 58 12 229 12 l225 0 6 -32z
m1382 19 c-13 -33 -57 -179 -57 -188 0 -5 57 38 128 96 l127 105 215 -3 214
-2 46 -56 c25 -31 81 -100 124 -154 l79 -97 -31 -106 c-18 -59 -55 -181 -82
-272 -27 -91 -69 -230 -93 -310 l-43 -145 -302 -3 c-257 -2 -302 0 -302 12 0
16 72 282 96 359 l16 47 99 0 c54 0 99 1 99 3 0 1 20 67 45 147 25 80 45 148
45 153 0 4 -73 6 -162 5 l-161 -3 -18 -55 c-10 -30 -45 -149 -79 -265 -34
-115 -75 -254 -92 -307 l-29 -98 -219 0 -219 0 15 48 c21 69 109 364 158 535
l43 147 -104 0 c-95 0 -104 2 -99 18 3 9 21 73 41 142 20 69 45 155 56 193
l20 67 215 0 c175 0 215 -3 211 -13z m223 -1322 c0 -8 -13 -79 -30 -157 -16
-77 -30 -143 -30 -145 0 -1 -16 -3 -35 -3 -39 0 -38 -6 -14 90 4 19 15 71 24
115 23 116 23 115 56 115 19 0 29 -5 29 -15z m-470 -80 c38 -20 50 -43 50 -97
0 -79 -50 -127 -132 -128 -62 0 -97 29 -105 87 -14 104 96 185 187 138z m300
-5 c24 -24 24 -33 4 -137 l-17 -83 -33 0 c-19 0 -34 2 -34 4 0 2 7 38 16 81
17 80 14 105 -10 105 -28 0 -52 -40 -70 -115 -17 -71 -19 -75 -45 -75 -37 0
-41 6 -31 43 5 18 16 67 25 110 16 74 18 77 46 77 16 0 29 -5 29 -10 0 -6 12
-4 28 4 38 21 68 20 92 -4z m522 -10 c18 -24 18 -28 0 -115 -18 -90 -18 -90
-50 -93 -38 -4 -38 -1 -16 94 16 72 14 94 -11 94 -34 0 -62 -45 -75 -118 l-13
-72 -34 0 c-39 0 -39 -5 -10 125 l22 100 33 3 c17 2 32 -1 32 -7 0 -5 12 -3
28 5 37 20 71 14 94 -16z m239 1 c23 -23 29 -39 29 -70 0 -38 -2 -41 -27 -42
-115 -3 -128 -5 -128 -18 0 -7 9 -20 21 -28 19 -12 24 -11 44 5 22 18 65 19
75 2 3 -5 -9 -20 -26 -34 -49 -41 -137 -33 -168 16 -18 29 -16 104 4 134 43
66 128 83 176 35z m-486 -3 c-3 -13 -13 -63 -23 -113 -18 -90 -18 -90 -50 -93
-39 -4 -38 -5 -12 123 11 53 20 99 20 101 0 2 16 4 35 4 32 0 35 -2 30 -22z
m-877 -100 l3 -28 -2540 0 -2541 0 0 30 0 30 2538 -2 2537 -3 3 -27z"/>
</g>
</svg>
